Patient4_TMGait_0pt7_02_left_44_EMG.mot
version=1
nRows=13
nColumns=33
inDegrees=no
endheader
time	1LAddLong	2LGlutMax	3LGlutMed	4LIliopsoas	5LSemiMemb	6LBicFemLong	7LRecFem	8LVastMed	9LVastLat	10LGasMed	11LTibAnt	12lTibPost	13LPeroneusLong	14LSol	15LExtDigLong	16LFlexDigLong	17RAddLong	18RGlutMax	19RGlutMed	20RIliopsoas	21RSemiMemb	22RBicFemLong	23RRecFem	24RVastMed	25RVastLat	26RGasMed	27RTibAnt	28RTibPost	29RPeroneusLong	30RSol	31RExtDigLong	32RFlexDigLong
51.568	0.070648	-0.25772	-0.016479	-0.010986	-0.002441	0.018158	0.029755	0.012665	0.10605	-0.10208	0.04776	-0.002136	0.045471	0.000763	-0.002136	0.019226	0.059967	-0.35065	0.40497	-0.001678	-0.17639	-0.006256	0.032349	-0.057526	-0.13825	-0.002441	0.084686	0.01297	-0.093842	0.028229	0.001831	-0.013428
51.569	0.006409	-0.25894	-0.036163	0.006256	-0.00824	0.01236	0.030518	-0.007172	0.10346	-0.076141	0.14145	-0.000763	0.002441	0.016479	-0.2269	0.027924	0.095978	-0.3363	0.31311	-0.066833	-0.14587	-0.064087	-0.24002	-0.17792	-0.004578	-0.043335	0.031738	-0.000305	-0.053253	-0.11963	-0.006104	-0.00824
51.57	0.00473	-0.25742	-0.021667	0.010376	-0.027466	0.009155	0.010834	-0.005341	0.093384	-0.029602	0.16266	-0.001678	0.006409	-0.020447	-0.40878	0.01709	0.11078	-0.31876	0.224	-0.066833	-0.11795	-0.10239	-0.36118	-0.22614	0.097809	-0.045471	-0.048981	-0.04837	0.75012	-0.15823	0	-0.006256
51.571	-0.003357	-0.21713	0.00824	0.018158	-0.050812	0.007629	0.019073	0.000153	0.10086	-0.003357	0.094757	-0.004272	0.069122	-0.033417	-0.43472	0.009766	0.065918	-0.32822	-0.023956	-0.062256	0.065308	-0.11627	-0.14358	-0.14282	0.21255	-0.035095	-0.041046	-0.30258	-0.093231	-0.064697	-0.004883	-0.01297
51.572	0.001831	-0.23224	0.018768	0.010223	-0.063171	0.004425	0.031128	0.018158	0.090027	0.032806	0.05127	0.002441	0.079346	-0.045319	-0.2829	0.019226	0.006409	-0.3215	-0.38788	-0.06485	-0.025482	-0.011444	-0.011749	0.018463	0.13641	-0.027618	0.058746	0.17029	-0.89477	0.004425	-0.000763	-0.005798
51.573	-0.005341	-0.20828	0.01236	0.026245	-0.036621	0.006409	0.0383	0.011139	0.080566	0.026855	-0.030975	-0.001984	0.065613	-0.042572	-0.064697	0.023346	-0.093384	-0.31799	-0.19821	0.0354	-0.17395	0.092468	0.023956	0.11032	0.086975	-0.029297	0.061493	0.078278	-0.3154	0.09491	0.010681	-0.001068
51.574	0.00885	-0.22736	-0.002136	0.00824	0.018158	0.011902	0.024261	0.00473	0.07843	0.018463	-0.072327	0.001984	0.028381	-0.018311	0.029907	0.010223	-0.10788	-0.32577	0.14145	0.15106	0.18616	0.075378	-0.037842	0.13107	0.034485	-0.034637	0.042267	0.032654	0.14191	0.11826	-0.000763	-0.006409
51.575	0.013885	-0.19134	-0.005493	0.019073	0.056305	0.045776	0.01297	0.007782	0.061188	-0.000458	-0.083923	-0.002594	0.012512	0.007935	0.13016	0.009155	-0.041046	-0.25406	0.21545	0.097046	-0.045319	0.059662	0.032654	0.097961	0.001831	-0.040436	0.001221	0.037079	0.242	0.089111	-0.007477	-0.016174
51.576	0.019073	-0.20859	-0.014801	0.015106	0.022583	0.054016	0.014191	0.018005	0.052948	-0.037537	-0.13382	-0.000458	0.02594	0.023193	0.14191	0.01297	-0.017242	-0.23926	0.20248	0.013733	-0.13245	0.023804	-0.027161	0.066376	-0.021362	0.021515	-0.058746	-0.083313	0.0737	0.10819	-0.001221	-0.011902
51.577	0.022888	-0.2385	-0.021667	0.001984	-0.001831	0.050507	0.040131	0.003967	0.045776	-0.075836	-0.15793	-0.001068	0.045013	-0.040588	0.16251	0.00885	-0.020905	-0.27756	0.078278	-0.097198	0.14053	-0.028687	-0.23636	0.072479	-0.061951	0.036926	-0.057068	-0.1564	0.036011	0.10178	-0.005646	-0.014496
51.578	0.018463	-0.21027	-0.051422	0.014191	0.003967	0.054169	0.037079	-0.00351	0.044556	-0.085449	-0.091095	-0.003815	0.045319	-0.11459	0.2269	0.009308	0.002289	-0.27252	0.089569	-0.08316	0.168	-0.063477	-0.092468	0.037231	-0.009766	-0.022125	-0.030365	0.040588	-0.012054	-0.11704	-0.005493	-0.018768
51.579	0.01358	-0.23315	-0.037537	0.000153	0.02182	0.031433	0.03006	-0.009766	0.047455	-0.078125	-0.028534	-0.004883	0.027466	-0.15427	0.087891	0.002289	-0.007935	-0.37796	0.17685	-0.018311	-0.0177	-0.075684	-0.008698	0.002441	0.054321	-0.009308	0.030212	0.13428	-0.025787	-0.24048	0.000763	-0.022278
51.58	0.010071	-0.20767	-0.046539	0.007324	0.029755	0.039825	0.035248	0.001373	0.031128	-0.063782	-0.010834	-0.002441	0.018158	-0.11749	0.031738	0.006104	0.006561	-0.36407	0.56122	0.021057	-0.090485	-0.11841	-0.00824	0.009613	0.024567	0.010071	0.036011	0.1767	0.070343	-0.24429	0.001526	-0.020447
